# xmcd
#
# Track frame offsets:
# 150
# 21483
# 47131
# 70655
# 97119
# 118861
# 136272
# 150113
#
# Disc length: 2313 seconds
#
#
# Revision: 0
# Processed by: cddbd v1.5PL3 Copyright (c) Steve Scherf et al.
# Submitted via: FreeRIP 2.30 
#
DISCID=66090708
DTITLE=Rev. Charles G. Hayes and The Cosmospolitan Choir - Turn It Over To Jesus
DYEAR=1994
DGENRE=Gospel
TTITLE0=All In His Hands
TTITLE1=You Can't Make Me Doubt Him
TTITLE2=I Can't Thank God Enough
TTITLE3=Nothing But A God
TTITLE4=We Are Soldiers
TTITLE5=Turn It Over To The Lord
TTITLE6=What Shall I Render
TTITLE7=The Lord Reigneth
EXTD=
EXTT0=
EXTT1=
EXTT2=
EXTT3=
EXTT4=
EXTT5=
EXTT6=
EXTT7=
PLAYORDER=
